inDegrees=no
num_controls=7
num_derivatives=13
num_iterations=68
num_multipliers=7
num_parameters=0
num_slacks=7
num_states=26
objective=0.510550
objective_accelerations=0.039848
objective_balance=0.002937
objective_effort=0.029484
objective_height=0.325471
objective_ligament=0.112809
solver_duration=859.518092
status=Solve_Succeeded
success=true
DataType=double
version=3
OpenSimVersion=4.5
endheader
time	/jointset/ground_pelvis/pelvis_tilt/value	/jointset/ground_pelvis/pelvis_tx/value	/jointset/ground_pelvis/pelvis_ty/value	/jointset/hip_l/hip_flexion_l/value	/jointset/hip_l/hip_adduction_l/value	/jointset/hip_l/hip_rotation_l/value	/jointset/back/lumbar_extension/value	/jointset/patellofemoral_l/patellar_flexion_l/value	/jointset/knee_l/knee_flexion_l/value	/jointset/knee_l/knee_adduction_l/value	/jointset/knee_l/knee_rotation_l/value	/jointset/ankle_l/ankle_angle_l/value	/jointset/subtalar_l/subtalar_angle_l/value	/jointset/ground_pelvis/pelvis_tilt/speed	/jointset/ground_pelvis/pelvis_tx/speed	/jointset/ground_pelvis/pelvis_ty/speed	/jointset/hip_l/hip_flexion_l/speed	/jointset/hip_l/hip_adduction_l/speed	/jointset/hip_l/hip_rotation_l/speed	/jointset/back/lumbar_extension/speed	/jointset/patellofemoral_l/patellar_flexion_l/speed	/jointset/knee_l/knee_flexion_l/speed	/jointset/knee_l/knee_adduction_l/speed	/jointset/knee_l/knee_rotation_l/speed	/jointset/ankle_l/ankle_angle_l/speed	/jointset/subtalar_l/subtalar_angle_l/speed	/forceset/tau_hip_flexion_l	/forceset/tau_hip_adduction_l	/forceset/tau_hip_rotation_l	/forceset/tau_knee_flexion_l	/forceset/tau_ankle_angle_l	/forceset/tau_subtalar_angle_l	/forceset/tau_lumbar_extension	lambda_cid13_p0	lambda_cid13_p1	lambda_cid13_p2	lambda_cid13_p3	lambda_cid13_p4	lambda_cid13_p5	lambda_cid14_p0	/jointset/ground_pelvis/pelvis_tilt/accel	/jointset/ground_pelvis/pelvis_tx/accel	/jointset/ground_pelvis/pelvis_ty/accel	/jointset/hip_l/hip_flexion_l/accel	/jointset/hip_l/hip_adduction_l/accel	/jointset/hip_l/hip_rotation_l/accel	/jointset/back/lumbar_extension/accel	/jointset/patellofemoral_l/patellar_flexion_l/accel	/jointset/knee_l/knee_flexion_l/accel	/jointset/knee_l/knee_adduction_l/accel	/jointset/knee_l/knee_rotation_l/accel	/jointset/ankle_l/ankle_angle_l/accel	/jointset/subtalar_l/subtalar_angle_l/accel	gamma_cid13_p0	gamma_cid13_p1	gamma_cid13_p2	gamma_cid13_p3	gamma_cid13_p4	gamma_cid13_p5	gamma_cid14_p0
0	-0.01829095089080159	0.04784847076736359	0.923179263925007	0.3085816938045678	-0.2627377384751546	-0.3168704845973539	-0.3879492264334186	0.2499269421184944	0.2499269421184919	-0.1054360366352677	-0.1745271425705514	-0.0008036623358878681	0.0348460945107613	0	0	0	0	0	0	0	0	0	0	0	0	0	0.1296522039481209	-0.03780504456744691	-0.02057933678364812	-0.350684236329907	0.3573208531668248	-0.07535741185854773	-0.03028927223770789	67.74573283187596	21.16449959256063	-4.169537821815826	-20.10648084101869	-633.1257962231128	-38.99692056864452	-22.94589144645199	-1.455306432878001	-1.620832582130015	-0.798160550123831	8.019546607585722	-0.4259104889769654	2.10500062094289	-7.236596938124317	7.253401896870372	7.253401896870108	1.585354038836316	-0.09659112157512967	1.151764769712273	-0.04481308964785346	3.921621207579711e-08	1.489457390848346e-07	-4.883599849634222e-08	-3.822600089030618e-08	1.959321523018349e-07	6.224069496448257e-08	2.050286313724956e-08
0.01	-0.01836249152503025	0.0477705322832312	0.9231403464164493	0.3089720481799069	-0.2627593582840015	-0.3167634684806254	-0.38830663577056	0.2502809476002724	0.2502809476002573	-0.1053608503510948	-0.174527955134757	-0.0007460907464406037	0.03484348615737393	-0.01445588805856634	-0.0152913320800731	-0.007737120568402792	0.07754120871061444	-0.004333620309030871	0.02131248671886451	-0.07075600589878027	0.0702838812740668	0.07028388127407378	0.01482998251046568	-9.720232960693763e-05	0.01162749342614619	-0.0004887676732865143	0.1313737873384095	-0.04600542232414844	-0.02106195629482034	-0.3617367532941858	0.3752584366968206	-0.07276061216074432	-0.02876954864918764	73.51153734254223	19.34224544064506	-4.238925926314154	-26.75637202550642	-636.974816449995	-43.29120906578694	-22.95049435401871	-1.462900551663614	-1.438836455121908	-0.7544914523371339	7.541955679544037	-0.4385573776018266	2.130778309093106	-6.886223185937691	6.838294879756717	6.838294879757702	1.400751199882798	0.04349788762922013	1.185225211071885	-0.04599164736610628	2.213104592188998e-09	5.776154167982373e-08	3.271579315241992e-09	1.816580856470827e-09	1.703098864318909e-08	6.69571360421846e-09	6.58889543555953e-09
0.02	-0.01858302515170724	0.04754856989146073	0.9230254569737807	0.3101219241777065	-0.2628246082110918	-0.3164460463743708	-0.3893498293207215	0.251322274622217	0.2513222746222139	-0.1051435780732455	-0.1745277831870254	-0.0005688475063353899	0.03483697351901398	-0.02979859848985431	-0.02880478152761313	-0.01519438682217423	0.1519043244909581	-0.008726023647515898	0.04208119790713142	-0.1371568426048108	0.1374643080314097	0.1374643080314283	0.02841719873017513	0.0001969023920904973	0.02393433013253198	-0.0007808569944609315	0.1330953707288397	-0.05420580008079779	-0.02154457580604536	-0.372789270258332	0.3931960202268936	-0.0701638124628574	-0.0272498250606185	79.33714213730019	17.51330967280358	-4.311575450754312	-33.48848110320663	-639.9318080945317	-47.49486719575416	-22.96388582923814	-1.632670907422015	-1.265256055623738	-0.7421896871975722	7.383928021531641	-0.437667094867809	1.996245514823366	-6.365563099574218	6.632710993525601	6.632710993526257	1.336800780685037	-0.01832971131429388	1.287633425759781	-0.005477419225600424	-3.479000289141912e-08	-3.342265572518714e-08	5.537915712682621e-08	4.185916260324784e-08	-1.618701750154567e-07	-4.884926775604565e-08	-7.325072266130503e-09
0.03	-0.01895722596163296	0.04719591896801965	0.9228369193211872	0.3120021301296674	-0.2629345188414069	-0.3159259203527876	-0.3910389115076609	0.2530228751748362	0.2530228751748216	-0.104796415350702	-0.174526208927321	-0.0002693200282742348	0.03482653581009772	-0.0447658591224505	-0.04187425298911988	-0.02251328885240203	0.223874545680315	-0.01329787833574271	0.06191594502821194	-0.2003022959668646	0.2024328073157664	0.202432807315782	0.04082296485317723	0.000121214514132416	0.03567470722956366	-0.0014604684038685	0.1118522016842622	-0.0339447139506847	-0.01954446055626799	-0.3376427202397318	0.3459328986366963	-0.06949581451014662	-0.01298903709451174	64.11425990387625	19.12633884470295	-3.698035552280398	-22.09941170768902	-639.9461878032587	-41.27302823926478	-22.98549048021114	-1.387394322049313	-1.35011163309704	-0.7267953312314287	7.064221196725316	-0.4732109066377406	1.972869195731261	-6.235441631653345	6.395471640621039	6.3954716406199	1.163606341103398	-0.001687581434106874	1.072767312141506	-0.1222709583700784	-3.675429710324281e-08	-3.998106376325084e-08	8.798465935686809e-08	3.875600278597808e-08	-1.725491191272547e-07	-6.851095337099023e-08	-1.043280695527181e-08
